# xmcd
#
# Track frame offsets:
#	150
#	15073
#	27737
#	47369
#	65303
#	82737
#	99907
#	116568
#	136756
#	153286
#	167534
#	180656
#
# Disc length: 2633 seconds
#
# Revision: 1
# Processed by: cddbd v1.5.2PL0 Copyright (c) Steve Scherf et al.
# Submitted via: audiograbber 1.83.01
#
DISCID=7b0a470c
DTITLE=Southside Jam - Next Please
DYEAR=2010
DGENRE=Blues/Rock
TTITLE0=bayou, bayou
TTITLE1=you better do it right now
TTITLE2=I never fool nobody but me
TTITLE3=big boy
TTITLE4=sad like Hank
TTITLE5=fulltime drunkyard
TTITLE6=her I go again
TTITLE7=shake a hand
TTITLE8=there's a higher power
TTITLE9=jetstream
TTITLE10=I knew the bride
TTITLE11=the glory of love
EXTD=
EXTT0=
EXTT1=
EXTT2=
EXTT3=
EXTT4=
EXTT5=
EXTT6=
EXTT7=
EXTT8=
EXTT9=
EXTT10=
EXTT11=
PLAYORDER=
